<?xml version="1.0" encoding="utf-8"?>
<svg viewBox="9.5894 15.1862 398.366 91.0918" width="398.366" height="91.0918" xmlns="http://www.w3.org/2000/svg">
  <g transform="matrix(1, 0, 0, 1, -4.544116020202633, -0.42404401302337646)">
    <path d="M 55.66 15.945 C 52.735 16.751 50.409 18.064 48.198 20.136 L 47.047 21.219 L 44.859 21.334 C 42.51 21.472 42.395 21.495 40.484 21.933 C 38.918 22.301 35.924 23.867 34.795 24.88 C 34.358 25.295 33.92 25.64 33.828 25.663 C 33.759 25.663 33.183 26.262 32.585 26.976 C 30.305 29.67 28.854 33.724 29.015 37.017 C 29.061 38.237 29.015 38.629 28.739 38.767 C 28.554 38.859 27.38 39.435 26.136 40.01 C 21.715 42.129 18.007 45.883 15.981 50.304 C 14.392 53.759 14.138 55.025 14.138 59.493 C 14.115 63.27 14.161 63.638 14.737 65.434 C 16.234 69.971 18.652 73.472 22.129 76.097 C 24.847 78.146 27.219 79.229 30.466 79.874 C 33.391 80.449 33.897 80.749 34.266 82.038 C 34.404 82.545 34.496 87.266 34.496 93.898 L 34.496 104.929 L 35.417 105.827 C 36.2 106.541 36.523 106.702 37.282 106.702 C 39.217 106.702 39.401 106.541 48.313 97.353 C 50.409 95.211 53.126 92.378 54.393 91.066 C 55.637 89.753 57.041 88.533 57.502 88.325 C 58.239 87.98 60.219 87.911 76.063 87.819 C 85.828 87.75 93.911 87.634 94.049 87.542 C 94.187 87.45 94.579 87.335 94.924 87.266 C 97.411 86.805 101.027 85.17 103.238 83.443 C 106.439 80.956 109.156 77.271 110.469 73.633 C 111.666 70.363 111.873 68.313 111.873 60.161 L 111.873 52.907 L 112.656 52.147 C 114.683 50.166 114.545 46.666 112.334 44.662 C 109.087 41.738 103.606 44.156 103.583 48.508 C 103.583 49.844 103.974 50.834 105.057 52.262 L 105.886 53.344 L 105.886 59.954 C 105.886 67.392 105.61 69.764 104.458 72.527 C 103.122 75.728 100.267 78.768 97.25 80.219 C 94.464 81.532 93.681 81.647 86.311 81.762 L 79.541 81.877 L 80.83 80.495 C 82.811 78.354 84.63 74.37 85.505 70.201 C 86.012 67.737 86.012 41.415 85.482 39.366 C 84.492 35.52 81.406 32.917 77.468 32.618 C 72.678 32.25 68.648 35.382 67.888 40.056 C 67.75 40.793 67.658 46.436 67.658 52.584 C 67.658 64.744 67.635 65.112 66.322 67.783 C 65.47 69.557 63.006 71.906 60.979 72.942 C 58.607 74.116 56.42 74.531 53.173 74.416 C 50.801 74.347 50.317 74.255 49.212 73.702 C 47.692 72.942 46.955 72.297 46.103 71.03 C 45.227 69.695 45.181 67.622 45.987 66.333 C 47.116 64.49 49.35 63.753 51.998 64.306 C 52.988 64.513 53.449 64.79 54.255 65.596 C 55.429 66.793 56.604 67.208 58.262 66.977 C 59.183 66.839 59.575 66.632 60.473 65.757 C 62.2 64.053 62.522 62.279 61.601 59.539 C 61.094 57.996 61.094 57.927 61.233 48.439 C 61.348 39.619 61.394 38.744 61.854 37.086 C 62.614 34.322 63.582 32.687 65.815 30.476 C 69.155 27.137 72.885 25.686 77.399 25.94 C 82.166 26.193 85.989 28.127 88.914 31.743 C 90.203 33.355 90.94 34.829 91.608 37.178 C 92.092 38.813 92.115 39.481 92.23 51.916 L 92.368 64.951 L 91.447 65.895 C 88.407 69.027 90.157 74.116 94.371 74.416 C 97.618 74.646 99.967 72.343 99.806 69.073 C 99.714 67.576 99.484 66.862 98.747 65.941 C 98.286 65.365 98.286 65.02 98.217 51.433 L 98.171 37.5 L 97.572 35.658 C 95.914 30.569 93.704 27.321 89.835 24.236 C 85.551 20.827 79.472 19.146 73.991 19.86 C 72.839 20.021 71.757 20.182 71.55 20.252 C 71.342 20.298 71.02 20.229 70.859 20.044 C 69.592 18.824 65.885 16.912 63.282 16.175 C 61.048 15.531 57.548 15.415 55.66 15.945 Z M 62.476 21.887 C 62.983 22.002 63.858 22.324 64.434 22.554 L 65.447 23.015 L 64.549 23.683 C 64.042 24.074 63.121 24.834 62.499 25.41 C 59.966 27.69 59.137 28.749 57.64 31.513 C 57.18 32.388 56.765 33.148 56.742 33.171 C 56.719 33.194 56.074 32.917 55.314 32.526 C 53.311 31.559 51.584 31.167 49.235 31.167 C 45.204 31.167 42.625 32.227 39.839 35.059 L 37.904 36.994 L 36.615 37.017 L 35.302 37.04 L 35.348 35.382 C 35.394 34.23 35.578 33.378 35.924 32.618 C 36.546 31.259 38.71 29.049 39.931 28.496 C 42.003 27.575 42.464 27.483 45.435 27.483 C 48.843 27.483 48.981 27.437 51.077 25.41 C 53.932 22.67 56.673 21.449 59.713 21.587 C 60.726 21.633 61.97 21.771 62.476 21.887 Z M 51.238 37.155 C 53.103 37.385 54.37 38.076 54.762 39.02 C 54.946 39.412 54.992 42.428 54.946 48.347 C 54.877 56.315 54.831 57.144 54.439 57.835 L 54.025 58.595 L 52.712 58.411 C 46.448 57.512 41.543 60.207 39.816 65.481 C 38.641 69.027 39.562 72.942 42.257 75.844 C 45.619 79.482 50.824 81.163 56.558 80.472 C 60.588 79.966 63.743 78.699 66.967 76.281 C 70.836 73.356 73.162 69.234 73.507 64.674 C 73.576 63.684 73.645 57.927 73.645 51.893 C 73.668 42.014 73.691 40.839 74.06 40.149 C 75.165 37.984 78.067 37.869 79.264 39.918 C 79.748 40.701 79.748 41.024 79.748 54.542 C 79.748 67.415 79.725 68.474 79.31 69.971 C 77.767 75.613 74.198 79.689 69.178 81.532 C 68.441 81.808 67.128 81.877 63.052 81.854 C 60.081 81.831 57.341 81.946 56.604 82.084 C 54.692 82.476 53.311 83.351 51.514 85.262 C 50.616 86.23 47.784 89.177 45.251 91.803 L 40.599 96.616 L 40.46 88.694 C 40.322 79.367 40.299 79.321 38.089 77.087 C 36.407 75.406 35.164 74.807 32.078 74.208 C 29.107 73.633 26.965 72.573 24.962 70.754 C 21.646 67.714 20.287 64.744 20.057 60.184 C 19.965 57.996 20.011 57.213 20.402 55.647 C 20.886 53.759 22.037 51.249 22.659 50.719 C 22.843 50.581 22.981 50.327 22.981 50.189 C 22.981 49.89 24.962 47.932 26.344 46.873 C 28.969 44.87 33.529 43.373 36.983 43.35 C 39.747 43.35 40.921 43.856 42.073 45.56 C 42.786 46.62 42.832 46.827 42.717 48.094 C 42.556 50.212 41.658 51.41 39.516 52.331 C 38.48 52.768 38.181 52.768 34.611 52.147 C 32.7 51.801 30.926 52.17 29.199 53.298 C 28.462 53.759 27.795 54.381 27.702 54.634 C 27.633 54.91 27.472 55.117 27.357 55.117 C 27.242 55.117 26.919 55.716 26.643 56.43 C 25.906 58.295 25.906 61.658 26.62 63.224 C 28.071 66.471 31.226 69.142 33.598 69.165 C 35.901 69.165 36.569 68.543 36.569 66.402 C 36.569 65.25 36.523 65.181 34.841 63.408 C 33.229 61.704 32.423 60.46 32.423 59.631 C 32.423 59.424 32.654 59.078 32.93 58.825 C 33.391 58.388 33.621 58.365 36.131 58.503 C 40.76 58.756 43.224 57.95 45.803 55.371 C 47.415 53.736 47.876 52.953 48.429 50.834 C 48.889 49.061 48.866 47.495 48.336 45.491 C 47.784 43.327 47.024 42.106 45.274 40.494 L 43.846 39.158 L 44.514 38.629 C 45.55 37.8 46.678 37.339 48.083 37.155 C 48.774 37.063 49.396 36.971 49.465 36.971 C 49.534 36.948 50.317 37.04 51.238 37.155 Z" fill="#1877F2" stroke="none"/>
    <g transform="matrix(0.027286, 0, 0, -0.027286, 123.786301, 69.894096)" fill="#1877F2" stroke="none" style="">
      <path d="M515 1195 c-142 -24 -220 -63 -311 -157 -70 -73 -93 -108 -131 -204&#10;-25 -64 -27 -80 -27 -219 0 -146 1 -152 32 -231 75 -189 184 -286 376 -334&#10;188 -47 403 -1 512 111 41 42 40 51 -24 113 l-40 38 -45 -31 c-151 -103 -331&#10;-104 -468 -1 -92 69 -137 167 -146 316 -5 76 -2 104 15 160 29 93 76 161 141&#10;205 146 98 319 92 469 -14 37 -27 44 -29 56 -16 13 14 76 126 76 135 0 15&#10;-132 85 -202 108 -97 30 -185 37 -283 21z"/>
      <path d="M1529 1185 c-127 -31 -254 -111 -318 -200 -46 -64 -89 -162 -102&#10;-230 -6 -34 -9 -111 -6 -180 5 -136 28 -213 93 -310 123 -185 390 -278 620&#10;-215 163 44 288 146 353 286 122 261 50 588 -166 753 -121 92 -322 133 -474&#10;96z m277 -186 c122 -46 198 -163 217 -331 10 -87 9 -108 -7 -171 -43 -166&#10;-142 -263 -291 -287 -197 -31 -369 86 -415 282 -12 56 -12 191 1 248 13 57 53&#10;137 87 173 100 107 261 141 408 86z"/>
      <path d="M2444 1192 l-41 -3 -5 -52 c-11 -108 -9 -663 2 -737 28 -180 162&#10;-322 338 -359 168 -35 363 11 460 110 56 57 109 166 122 252 6 41 10 214 9&#10;423 l-2 354 -31 5 c-17 4 -60 5 -96 3 l-65 -3 -5 -385 c-6 -430 -8 -443 -77&#10;-514 -60 -61 -86 -71 -193 -71 -133 0 -184 31 -239 145 l-26 55 -3 387 -3 386&#10;-52 4 c-29 1 -71 2 -93 0z"/>
      <path d="M4805 1195 c-5 -2 -36 -11 -67 -19 -31 -9 -63 -22 -70 -29 -7 -7 -27&#10;-22 -44 -34 -17 -12 -46 -50 -65 -85 -32 -60 -34 -68 -34 -163 0 -91 2 -104&#10;28 -147 50 -85 139 -141 310 -192 143 -44 199 -115 164 -208 -34 -87 -93 -123&#10;-202 -122 -69 1 -131 25 -206 80 -49 36 -50 36 -71 18 -39 -36 -79 -104 -73&#10;-124 10 -32 119 -100 204 -126 48 -15 196 -19 260 -8 109 20 196 85 243 182&#10;31 62 33 74 33 167 0 92 -2 104 -30 154 -38 68 -96 108 -235 159 -140 52 -181&#10;74 -218 117 -55 61 -35 148 44 194 69 41 219 18 294 -46 17 -14 36 -23 43 -20&#10;15 6 64 103 69 137 3 22 -5 29 -57 57 -76 40 -167 63 -247 62 -35 0 -67 -2&#10;-73 -4z"/>
      <path d="M6110 1191 c-182 -37 -300 -211 -260 -384 33 -136 100 -196 295 -261&#10;151 -50 205 -98 205 -183 0 -72 -39 -127 -112 -158 -76 -31 -180 -7 -292 68&#10;l-69 46 -39 -52 c-48 -64 -56 -92 -33 -117 24 -27 161 -95 219 -109 61 -15&#10;192 -16 244 -2 106 29 206 114 243 207 32 83 34 221 2 280 -44 82 -134 140&#10;-308 199 -99 34 -141 59 -160 95 -34 66 -6 159 57 191 71 36 224 15 295 -41&#10;14 -11 30 -20 35 -20 5 0 26 28 48 63 l40 62 -30 26 c-92 79 -250 116 -380 90z"/>
      <path d="M7874 1192 c-17 -2 -28 -21 -52 -85 -17 -45 -67 -181 -112 -302 -45&#10;-121 -92 -247 -105 -280 -13 -33 -44 -114 -70 -180 -26 -66 -62 -158 -82 -203&#10;-22 -53 -32 -87 -26 -93 6 -6 52 -8 104 -7 l93 3 44 125 c24 69 46 133 49 142&#10;5 16 26 17 241 15 l236 -2 56 -142 55 -142 92 -1 c50 0 94 4 97 8 4 7 -28 97&#10;-63 177 -5 11 -29 72 -54 135 -205 518 -277 704 -296 762 l-22 67 -82 3 c-45&#10;2 -92 2 -103 0z m104 -274 c7 -24 36 -104 64 -178 83 -219 98 -263 95 -267 -6&#10;-5 -356 -7 -361 -2 -2 2 11 45 30 94 18 50 49 135 69 190 53 147 77 205 84&#10;205 3 0 12 -19 19 -42z"/>
      <path d="M9396 1108 c-3 -50 -6 -236 -6 -412 0 -309 -1 -320 -18 -294 -21 33&#10;-194 261 -203 268 -3 3 -32 41 -65 85 -32 44 -104 139 -159 211 -55 72 -109&#10;143 -120 158 -41 57 -56 66 -114 66 -31 0 -62 -4 -68 -8 -10 -6 -13 -133 -13&#10;-557 -1 -303 -1 -558 0 -568 0 -16 9 -17 88 -15 l87 3 1 85 c1 47 2 226 3 398&#10;l1 314 37 -49 c20 -26 40 -49 45 -51 4 -2 8 -8 8 -13 0 -5 72 -105 161 -222&#10;89 -116 204 -269 257 -339 l97 -128 77 0 78 0 0 564 c0 310 -3 571 -6 580 -5&#10;13 -22 16 -84 16 l-77 0 -7 -92z"/>
      <path d="M3592 1182 c-10 -7 -12 -128 -10 -573 l3 -564 91 -3 91 -3 7 77 c3&#10;42 6 146 6 231 l0 153 69 0 70 0 100 -157 c56 -87 125 -189 153 -228 50 -66&#10;56 -70 103 -78 59 -9 155 0 155 15 0 11 -61 101 -72 106 -5 2 -8 7 -8 12 0 4&#10;-54 86 -120 181 -65 96 -119 179 -119 184 0 6 18 18 40 28 56 26 125 96 152&#10;153 18 40 22 67 22 144 0 84 -3 101 -27 146 -51 96 -138 151 -280 174 -74 12&#10;-407 13 -426 2z m452 -182 c25 -12 56 -36 68 -53 48 -67 16 -220 -55 -263 -57&#10;-35 -91 -42 -184 -43 l-93 -1 -1 83 c0 45 -3 127 -5 182 -2 55 -2 106 1 114 9&#10;23 211 10 269 -19z"/>
      <path d="M5443 1183 c-10 -4 -13 -128 -13 -574 l0 -569 95 0 c52 0 95 3 95 8&#10;0 4 2 260 4 569 l3 561 -21 6 c-25 7 -146 6 -163 -1z"/>
      <path d="M6597 1183 c-4 -3 -7 -42 -7 -85 l0 -78 180 0 180 0 2 -487 3 -488&#10;98 -3 97 -3 0 491 0 490 108 2 c59 1 134 2 167 2 l60 1 3 83 3 82 -444 0&#10;c-244 0 -447 -3 -450 -7z"/>
      <path d="M9714 1177 c-3 -8 -4 -45 -2 -83 l3 -69 165 -5 165 -5 0 -485 0 -485&#10;95 0 95 0 3 488 2 487 170 0 171 0 -3 83 -3 82 -428 3 c-353 2 -428 0 -433&#10;-11z"/>
    </g>
  </g>
</svg>