<?xml version="1.0" standalone="no"?>
<!DOCTYPE svg PUBLIC "-//W3C//DTD SVG 20010904//EN"
 "http://www.w3.org/TR/2001/REC-SVG-20010904/DTD/svg10.dtd">
<svg version="1.0" xmlns="http://www.w3.org/2000/svg"
 width="471.000000pt" height="470.000000pt" viewBox="0 0 471.000000 470.000000"
 preserveAspectRatio="xMidYMid meet">

<g transform="translate(0.000000,470.000000) scale(0.100000,-0.100000)"
fill="#1877F2" stroke="none">
<path d="M1975 4272 c-128 -33 -261 -108 -344 -196 -34 -35 -37 -36 -108 -36
-111 0 -254 -34 -347 -83 -119 -63 -240 -185 -295 -297 -51 -105 -76 -220 -67
-306 7 -71 13 -65 -90 -110 -205 -89 -387 -267 -479 -468 -68 -148 -79 -202
-79 -396 0 -161 2 -181 27 -258 62 -194 167 -346 322 -464 115 -88 219 -135
360 -163 127 -25 149 -38 165 -94 6 -22 10 -227 10 -515 l0 -479 40 -39 c34
-31 48 -38 81 -38 23 0 57 8 77 17 47 22 71 45 623 620 75 77 152 149 170 160
32 17 80 18 799 23 752 6 767 6 855 28 341 86 608 360 691 710 13 53 17 143
21 422 l4 355 29 30 c46 49 63 94 64 161 0 69 -30 132 -84 178 -86 72 -233 57
-311 -32 -41 -47 -59 -91 -59 -147 0 -57 19 -103 65 -159 l35 -43 0 -294 c0
-330 -11 -425 -61 -543 -61 -143 -174 -267 -303 -330 -131 -64 -160 -68 -485
-73 l-294 -5 56 63 c60 66 131 197 166 308 50 155 52 185 49 842 -3 600 -3
615 -24 671 -58 151 -183 244 -342 255 -152 10 -292 -63 -368 -193 -49 -84
-54 -138 -54 -674 0 -535 -1 -543 -56 -657 -35 -73 -139 -177 -219 -220 -94
-50 -193 -73 -312 -73 -132 0 -189 13 -261 59 -79 52 -115 113 -116 197 -1 54
3 68 29 105 40 56 82 80 154 86 89 8 147 -10 199 -63 99 -99 249 -76 315 50
28 54 30 152 3 216 -17 42 -19 73 -17 439 3 416 9 492 51 603 48 129 175 270
306 340 284 152 642 77 847 -177 56 -70 92 -143 120 -240 19 -65 21 -108 25
-637 l4 -567 -41 -42 c-23 -24 -41 -51 -41 -60 0 -10 -4 -21 -10 -24 -5 -3
-10 -34 -10 -68 0 -164 152 -263 300 -196 89 40 124 97 124 204 0 72 -9 102
-44 145 -20 25 -21 39 -23 625 l-2 600 -27 87 c-34 114 -95 237 -157 319 -54
71 -171 185 -208 202 -13 6 -23 13 -23 17 0 16 -212 110 -290 129 -119 28
-265 35 -375 18 l-90 -14 -63 45 c-188 131 -432 189 -607 144z m257 -256 c40
-8 93 -23 117 -33 l45 -19 -45 -31 c-59 -41 -177 -156 -223 -217 -21 -27 -53
-80 -72 -118 -19 -37 -38 -68 -43 -68 -5 0 -34 12 -66 26 -87 40 -151 54 -255
54 -176 0 -281 -42 -408 -165 -78 -76 -89 -83 -135 -89 -28 -3 -53 -4 -55 -1
-3 2 -5 34 -4 69 0 86 35 161 112 236 86 83 141 102 320 109 96 4 153 11 170
20 14 8 57 44 95 80 79 75 165 124 251 145 77 19 107 19 196 2z m-456 -666
c82 -11 137 -39 153 -79 9 -19 11 -137 9 -407 -3 -345 -5 -382 -21 -413 -18
-32 -20 -33 -63 -26 -25 3 -85 6 -134 6 -131 -1 -232 -39 -321 -122 -180 -170
-185 -453 -12 -640 47 -50 168 -139 190 -139 5 0 20 -6 35 -14 78 -41 249 -61
389 -46 174 19 316 74 445 171 165 123 260 272 289 454 10 58 14 218 15 585 0
457 2 507 18 539 50 101 179 101 230 1 l23 -45 -3 -595 c-4 -665 -2 -645 -78
-805 -72 -153 -203 -281 -345 -336 l-80 -31 -225 1 c-235 1 -306 -7 -375 -42
-23 -11 -110 -92 -205 -190 -91 -94 -218 -225 -282 -291 l-117 -121 -1 310 c0
403 -11 454 -110 553 -47 47 -161 97 -265 116 -116 20 -212 67 -299 147 -144
132 -203 261 -213 459 -4 95 -2 129 15 197 21 82 71 191 98 214 8 6 14 17 14
24 0 8 35 46 78 85 211 195 591 278 720 157 63 -59 80 -159 40 -234 -26 -48
-59 -76 -120 -102 -45 -20 -53 -19 -211 8 -77 13 -157 -1 -225 -42 -102 -61
-146 -150 -146 -297 0 -108 15 -152 83 -243 91 -124 217 -182 319 -146 39 13
56 54 50 120 -5 47 -11 56 -76 122 -102 105 -123 156 -80 197 20 18 30 19 133
14 203 -12 314 23 426 135 70 71 90 105 114 197 19 74 19 144 0 219 -26 100
-52 144 -126 218 l-71 71 28 23 c41 33 89 54 143 63 63 11 67 11 147 0z"/>
</g>
</svg>
