<?xml version="1.0" standalone="no"?>
<!DOCTYPE svg PUBLIC "-//W3C//DTD SVG 20010904//EN"
 "http://www.w3.org/TR/2001/REC-SVG-20010904/DTD/svg10.dtd">
<svg version="1.0" xmlns="http://www.w3.org/2000/svg"
 width="1062.000000pt" height="590.000000pt" viewBox="0 0 1062.000000 590.000000"
 preserveAspectRatio="xMidYMid meet">

<g transform="translate(0.000000,590.000000) scale(0.100000,-0.100000)"
fill="#1877F2" stroke="none">
<path d="M4929 5831 c-127 -35 -228 -92 -324 -182 l-50 -47 -95 -5 c-102 -6
-107 -7 -190 -26 -68 -16 -198 -84 -247 -128 -19 -18 -38 -33 -42 -34 -3 0
-28 -26 -54 -57 -99 -117 -162 -293 -155 -436 2 -53 0 -70 -12 -76 -8 -4 -59
-29 -113 -54 -192 -92 -353 -255 -441 -447 -69 -150 -80 -205 -80 -399 -1
-164 1 -180 26 -258 65 -197 170 -349 321 -463 118 -89 221 -136 362 -164 127
-25 149 -38 165 -94 6 -22 10 -227 10 -515 l0 -479 40 -39 c34 -31 48 -38 81
-38 84 0 92 7 479 406 91 93 209 216 264 273 54 57 115 110 135 119 32 15 118
18 806 22 424 3 775 8 781 12 6 4 23 9 38 12 108 20 265 91 361 166 139 108
257 268 314 426 52 142 61 231 61 585 l0 315 34 33 c88 86 82 238 -14 325
-141 127 -379 22 -380 -167 0 -58 17 -101 64 -163 l36 -47 0 -287 c0 -323 -12
-426 -62 -546 -58 -139 -182 -271 -313 -334 -121 -57 -155 -62 -475 -67 l-294
-5 56 60 c86 93 165 266 203 447 22 107 22 1250 -1 1339 -43 167 -177 280
-348 293 -208 16 -383 -120 -416 -323 -6 -32 -10 -277 -10 -544 0 -528 -1
-544 -58 -660 -37 -77 -144 -179 -232 -224 -103 -51 -198 -69 -339 -64 -103 3
-124 7 -172 31 -66 33 -98 61 -135 116 -38 58 -40 148 -5 204 49 80 146 112
261 88 43 -9 63 -21 98 -56 51 -52 102 -70 174 -60 40 6 57 15 96 53 75 74 89
151 49 270 -22 67 -22 70 -16 482 5 383 7 421 27 493 33 120 75 191 172 287
145 145 307 208 503 197 207 -11 373 -95 500 -252 56 -70 88 -134 117 -236 21
-71 22 -100 27 -640 l6 -566 -40 -41 c-132 -136 -56 -357 127 -370 141 -10
243 90 236 232 -4 65 -14 96 -46 136 -20 25 -20 40 -23 630 l-2 605 -26 80
c-72 221 -168 362 -336 496 -186 148 -450 221 -688 190 -50 -7 -97 -14 -106
-17 -9 -2 -23 1 -30 9 -55 53 -216 136 -329 168 -97 28 -249 33 -331 10z m296
-258 c22 -5 60 -19 85 -29 l44 -20 -39 -29 c-22 -17 -62 -50 -89 -75 -110 -99
-146 -145 -211 -265 -20 -38 -38 -71 -39 -72 -1 -1 -29 11 -62 28 -87 42 -162
59 -264 59 -175 0 -287 -46 -408 -169 l-84 -84 -56 -1 -57 -1 2 72 c2 50 10
87 25 120 27 59 121 155 174 179 90 40 110 44 239 44 148 0 154 2 245 90 124
119 243 172 375 166 44 -2 98 -8 120 -13z m-488 -663 c81 -10 136 -40 153 -81
8 -17 10 -148 8 -405 -3 -346 -5 -382 -22 -412 l-18 -33 -57 8 c-272 39 -485
-78 -560 -307 -51 -154 -11 -324 106 -450 146 -158 372 -231 621 -201 175 22
312 77 452 182 168 127 269 306 284 504 3 43 6 293 6 555 1 429 2 480 18 510
48 94 174 99 226 10 21 -34 21 -48 21 -635 0 -559 -1 -605 -19 -670 -67 -245
-222 -422 -440 -502 -32 -12 -89 -15 -266 -14 -129 1 -248 -4 -280 -10 -83
-17 -143 -55 -221 -138 -39 -42 -162 -170 -272 -284 l-202 -209 -6 344 c-6
405 -7 407 -103 504 -73 73 -127 99 -261 125 -129 25 -222 71 -309 150 -144
132 -203 261 -213 459 -4 95 -2 129 15 197 21 82 71 191 98 214 8 6 14 17 14
23 0 13 86 98 146 144 114 87 312 152 462 153 120 0 171 -22 221 -96 31 -46
33 -55 28 -110 -7 -92 -46 -144 -139 -184 -45 -19 -58 -19 -213 8 -83 15 -160
-1 -235 -50 -32 -20 -61 -47 -65 -58 -3 -12 -10 -21 -15 -21 -5 0 -19 -26 -31
-57 -32 -81 -32 -227 -1 -295 63 -141 200 -257 303 -258 100 0 129 27 129 120
0 50 -2 53 -75 130 -70 74 -105 128 -105 164 0 9 10 24 22 35 20 19 30 20 139
14 201 -11 308 24 420 136 70 71 90 105 114 197 20 77 19 145 -4 232 -24 94
-57 147 -133 217 l-62 58 29 23 c45 36 94 56 155 64 30 4 57 8 60 8 3 1 37 -3
77 -8z"/>
<path d="M515 1195 c-142 -24 -220 -63 -311 -157 -70 -73 -93 -108 -131 -204
-25 -64 -27 -80 -27 -219 0 -146 1 -152 32 -231 75 -189 184 -286 376 -334
188 -47 403 -1 512 111 41 42 40 51 -24 113 l-40 38 -45 -31 c-151 -103 -331
-104 -468 -1 -92 69 -137 167 -146 316 -5 76 -2 104 15 160 29 93 76 161 141
205 146 98 319 92 469 -14 37 -27 44 -29 56 -16 13 14 76 126 76 135 0 15
-132 85 -202 108 -97 30 -185 37 -283 21z"/>
<path d="M1529 1185 c-127 -31 -254 -111 -318 -200 -46 -64 -89 -162 -102
-230 -6 -34 -9 -111 -6 -180 5 -136 28 -213 93 -310 123 -185 390 -278 620
-215 163 44 288 146 353 286 122 261 50 588 -166 753 -121 92 -322 133 -474
96z m277 -186 c122 -46 198 -163 217 -331 10 -87 9 -108 -7 -171 -43 -166
-142 -263 -291 -287 -197 -31 -369 86 -415 282 -12 56 -12 191 1 248 13 57 53
137 87 173 100 107 261 141 408 86z"/>
<path d="M2444 1192 l-41 -3 -5 -52 c-11 -108 -9 -663 2 -737 28 -180 162
-322 338 -359 168 -35 363 11 460 110 56 57 109 166 122 252 6 41 10 214 9
423 l-2 354 -31 5 c-17 4 -60 5 -96 3 l-65 -3 -5 -385 c-6 -430 -8 -443 -77
-514 -60 -61 -86 -71 -193 -71 -133 0 -184 31 -239 145 l-26 55 -3 387 -3 386
-52 4 c-29 1 -71 2 -93 0z"/>
<path d="M4805 1195 c-5 -2 -36 -11 -67 -19 -31 -9 -63 -22 -70 -29 -7 -7 -27
-22 -44 -34 -17 -12 -46 -50 -65 -85 -32 -60 -34 -68 -34 -163 0 -91 2 -104
28 -147 50 -85 139 -141 310 -192 143 -44 199 -115 164 -208 -34 -87 -93 -123
-202 -122 -69 1 -131 25 -206 80 -49 36 -50 36 -71 18 -39 -36 -79 -104 -73
-124 10 -32 119 -100 204 -126 48 -15 196 -19 260 -8 109 20 196 85 243 182
31 62 33 74 33 167 0 92 -2 104 -30 154 -38 68 -96 108 -235 159 -140 52 -181
74 -218 117 -55 61 -35 148 44 194 69 41 219 18 294 -46 17 -14 36 -23 43 -20
15 6 64 103 69 137 3 22 -5 29 -57 57 -76 40 -167 63 -247 62 -35 0 -67 -2
-73 -4z"/>
<path d="M6110 1191 c-182 -37 -300 -211 -260 -384 33 -136 100 -196 295 -261
151 -50 205 -98 205 -183 0 -72 -39 -127 -112 -158 -76 -31 -180 -7 -292 68
l-69 46 -39 -52 c-48 -64 -56 -92 -33 -117 24 -27 161 -95 219 -109 61 -15
192 -16 244 -2 106 29 206 114 243 207 32 83 34 221 2 280 -44 82 -134 140
-308 199 -99 34 -141 59 -160 95 -34 66 -6 159 57 191 71 36 224 15 295 -41
14 -11 30 -20 35 -20 5 0 26 28 48 63 l40 62 -30 26 c-92 79 -250 116 -380 90z"/>
<path d="M7874 1192 c-17 -2 -28 -21 -52 -85 -17 -45 -67 -181 -112 -302 -45
-121 -92 -247 -105 -280 -13 -33 -44 -114 -70 -180 -26 -66 -62 -158 -82 -203
-22 -53 -32 -87 -26 -93 6 -6 52 -8 104 -7 l93 3 44 125 c24 69 46 133 49 142
5 16 26 17 241 15 l236 -2 56 -142 55 -142 92 -1 c50 0 94 4 97 8 4 7 -28 97
-63 177 -5 11 -29 72 -54 135 -205 518 -277 704 -296 762 l-22 67 -82 3 c-45
2 -92 2 -103 0z m104 -274 c7 -24 36 -104 64 -178 83 -219 98 -263 95 -267 -6
-5 -356 -7 -361 -2 -2 2 11 45 30 94 18 50 49 135 69 190 53 147 77 205 84
205 3 0 12 -19 19 -42z"/>
<path d="M9396 1108 c-3 -50 -6 -236 -6 -412 0 -309 -1 -320 -18 -294 -21 33
-194 261 -203 268 -3 3 -32 41 -65 85 -32 44 -104 139 -159 211 -55 72 -109
143 -120 158 -41 57 -56 66 -114 66 -31 0 -62 -4 -68 -8 -10 -6 -13 -133 -13
-557 -1 -303 -1 -558 0 -568 0 -16 9 -17 88 -15 l87 3 1 85 c1 47 2 226 3 398
l1 314 37 -49 c20 -26 40 -49 45 -51 4 -2 8 -8 8 -13 0 -5 72 -105 161 -222
89 -116 204 -269 257 -339 l97 -128 77 0 78 0 0 564 c0 310 -3 571 -6 580 -5
13 -22 16 -84 16 l-77 0 -7 -92z"/>
<path d="M3592 1182 c-10 -7 -12 -128 -10 -573 l3 -564 91 -3 91 -3 7 77 c3
42 6 146 6 231 l0 153 69 0 70 0 100 -157 c56 -87 125 -189 153 -228 50 -66
56 -70 103 -78 59 -9 155 0 155 15 0 11 -61 101 -72 106 -5 2 -8 7 -8 12 0 4
-54 86 -120 181 -65 96 -119 179 -119 184 0 6 18 18 40 28 56 26 125 96 152
153 18 40 22 67 22 144 0 84 -3 101 -27 146 -51 96 -138 151 -280 174 -74 12
-407 13 -426 2z m452 -182 c25 -12 56 -36 68 -53 48 -67 16 -220 -55 -263 -57
-35 -91 -42 -184 -43 l-93 -1 -1 83 c0 45 -3 127 -5 182 -2 55 -2 106 1 114 9
23 211 10 269 -19z"/>
<path d="M5443 1183 c-10 -4 -13 -128 -13 -574 l0 -569 95 0 c52 0 95 3 95 8
0 4 2 260 4 569 l3 561 -21 6 c-25 7 -146 6 -163 -1z"/>
<path d="M6597 1183 c-4 -3 -7 -42 -7 -85 l0 -78 180 0 180 0 2 -487 3 -488
98 -3 97 -3 0 491 0 490 108 2 c59 1 134 2 167 2 l60 1 3 83 3 82 -444 0
c-244 0 -447 -3 -450 -7z"/>
<path d="M9714 1177 c-3 -8 -4 -45 -2 -83 l3 -69 165 -5 165 -5 0 -485 0 -485
95 0 95 0 3 488 2 487 170 0 171 0 -3 83 -3 82 -428 3 c-353 2 -428 0 -433
-11z"/>
</g>
</svg>
